<svg width="4655" height="201" viewBox="0 0 4655 201" fill="none" xmlns="http://www.w3.org/2000/svg">
<g opacity="0.95" clip-path="url(#clip0_114_252)">
<path d="M37.1972 0.472656C31.8382 0.472656 27.2883 4.39921 26.5044 9.70055L0.118433 188.139C-0.846911 194.667 4.21199 200.529 10.8112 200.529H57.6614C63.0204 200.529 67.5702 196.603 68.3542 191.301L80.3861 109.934C82.2055 97.63 99.9523 97.63 101.772 109.934L113.804 191.301C114.588 196.603 119.137 200.529 124.496 200.529H172.906C178.265 200.529 182.815 196.603 183.599 191.301L195.626 109.964C197.446 97.6601 215.192 97.6601 217.012 109.964L229.039 191.301C229.823 196.603 234.373 200.529 239.732 200.529H347.495C352.854 200.529 357.404 196.603 358.188 191.301L370.22 109.934C372.04 97.63 389.786 97.63 391.606 109.934L403.638 191.301C404.422 196.603 408.972 200.529 414.331 200.529H462.74C468.099 200.529 472.649 196.603 473.433 191.301L485.46 109.964C487.28 97.6601 505.027 97.6601 506.846 109.964L518.873 191.301C519.657 196.603 524.207 200.529 529.566 200.529H576.416C583.016 200.529 588.074 194.667 587.109 188.139L560.723 9.70055C559.939 4.39921 555.389 0.472656 550.03 0.472656L471.948 0.472656C466.589 0.472656 462.04 4.39922 461.256 9.70056L449.228 91.038C447.409 103.342 429.662 103.342 427.842 91.038L415.815 9.70055C415.031 4.39922 410.481 0.472656 405.122 0.472656L327.031 0.472656C321.672 0.472656 317.122 4.39922 316.339 9.70056L304.307 91.068C302.487 103.372 284.74 103.372 282.921 91.068L270.889 9.70055C270.105 4.39921 265.555 0.472656 260.196 0.472656L182.114 0.472656C176.755 0.472656 172.205 4.39922 171.421 9.70056L159.394 91.038C157.575 103.342 139.828 103.342 138.008 91.038L125.981 9.70055C125.197 4.39922 120.647 0.472656 115.288 0.472656L37.1972 0.472656Z" fill="#F63E06"/>
<path d="M327.7 0.472656C322.341 0.472656 317.791 4.39921 317.007 9.70055L290.621 188.139C289.656 194.667 294.715 200.529 301.314 200.529H348.164C353.523 200.529 358.073 196.603 358.857 191.301L370.889 109.934C372.708 97.63 390.455 97.63 392.274 109.934L404.306 191.301C405.09 196.603 409.64 200.529 414.999 200.529L463.409 200.529C468.768 200.529 473.318 196.603 474.101 191.301L486.129 109.964C487.948 97.6601 505.695 97.6601 507.514 109.964L519.542 191.301C520.326 196.603 524.876 200.529 530.235 200.529H637.998C643.357 200.529 647.907 196.603 648.691 191.301L660.723 109.934C662.542 97.63 680.289 97.63 682.108 109.934L694.14 191.301C694.924 196.603 699.474 200.529 704.833 200.529L753.243 200.529C758.602 200.529 763.152 196.603 763.936 191.301L775.963 109.964C777.782 97.6601 795.529 97.6601 797.349 109.964L809.376 191.301C810.16 196.603 814.71 200.529 820.069 200.529H866.919C873.518 200.529 878.577 194.667 877.612 188.139L851.226 9.70055C850.442 4.39921 845.892 0.472656 840.533 0.472656L762.451 0.472656C757.092 0.472656 752.542 4.39922 751.758 9.70056L739.731 91.038C737.911 103.342 720.165 103.342 718.345 91.038L706.318 9.70055C705.534 4.39922 700.984 0.472656 695.625 0.472656L617.534 0.472656C612.175 0.472656 607.625 4.39922 606.841 9.70056L594.809 91.068C592.99 103.372 575.243 103.372 573.424 91.068L561.392 9.70055C560.608 4.39921 556.058 0.472656 550.699 0.472656L472.617 0.472656C467.258 0.472656 462.708 4.39922 461.924 9.70056L449.897 91.038C448.077 103.342 430.33 103.342 428.511 91.038L416.484 9.70055C415.7 4.39922 411.15 0.472656 405.791 0.472656L327.7 0.472656Z" fill="#F63E06"/>
<path d="M618.203 0.472656C612.844 0.472656 608.294 4.39921 607.51 9.70055L581.124 188.139C580.158 194.667 585.217 200.529 591.817 200.529H638.667C644.026 200.529 648.576 196.603 649.36 191.301L661.391 109.934C663.211 97.63 680.958 97.63 682.777 109.934L694.809 191.301C695.593 196.603 700.143 200.529 705.502 200.529L753.911 200.529C759.27 200.529 763.82 196.603 764.604 191.301L776.632 109.964C778.451 97.6601 796.198 97.6601 798.017 109.964L810.045 191.301C810.829 196.603 815.378 200.529 820.737 200.529H928.501C933.86 200.529 938.41 196.603 939.194 191.301L951.226 109.934C953.045 97.63 970.792 97.63 972.611 109.934L984.643 191.301C985.427 196.603 989.977 200.529 995.336 200.529L1043.75 200.529C1049.1 200.529 1053.65 196.603 1054.44 191.301L1066.47 109.964C1068.29 97.6601 1086.03 97.6601 1087.85 109.964L1099.88 191.301C1100.66 196.603 1105.21 200.529 1110.57 200.529H1157.42C1164.02 200.529 1169.08 194.667 1168.11 188.139L1141.73 9.70055C1140.94 4.39921 1136.39 0.472656 1131.04 0.472656L1052.95 0.472656C1047.59 0.472656 1043.04 4.39922 1042.26 9.70056L1030.23 91.038C1028.41 103.342 1010.67 103.342 1008.85 91.038L996.82 9.70055C996.036 4.39922 991.487 0.472656 986.128 0.472656L908.037 0.472656C902.678 0.472656 898.128 4.39922 897.344 9.70056L885.312 91.068C883.493 103.372 865.746 103.372 863.926 91.068L851.894 9.70055C851.11 4.39921 846.561 0.472656 841.202 0.472656L763.12 0.472656C757.761 0.472656 753.211 4.39922 752.427 9.70056L740.399 91.038C738.58 103.342 720.833 103.342 719.014 91.038L706.986 9.70055C706.202 4.39922 701.652 0.472656 696.293 0.472656L618.203 0.472656Z" fill="#F63E06"/>
<path d="M908.705 0.472656C903.346 0.472656 898.796 4.39921 898.012 9.70055L871.626 188.139C870.661 194.667 875.72 200.529 882.319 200.529H929.169C934.528 200.529 939.078 196.603 939.862 191.301L951.894 109.934C953.714 97.63 971.46 97.63 973.28 109.934L985.312 191.301C986.096 196.603 990.646 200.529 996.005 200.529L1044.41 200.529C1049.77 200.529 1054.32 196.603 1055.11 191.301L1067.13 109.964C1068.95 97.6601 1086.7 97.6601 1088.52 109.964L1100.55 191.301C1101.33 196.603 1105.88 200.529 1111.24 200.529H1219C1224.36 200.529 1228.91 196.603 1229.7 191.301L1241.73 109.934C1243.55 97.63 1261.29 97.63 1263.11 109.934L1275.15 191.301C1275.93 196.603 1280.48 200.529 1285.84 200.529L1334.25 200.529C1339.61 200.529 1344.16 196.603 1344.94 191.301L1356.97 109.964C1358.79 97.6601 1376.53 97.6601 1378.35 109.964L1390.38 191.301C1391.17 196.603 1395.72 200.529 1401.07 200.529H1447.92C1454.52 200.529 1459.58 194.667 1458.62 188.139L1432.23 9.70055C1431.45 4.39921 1426.9 0.472656 1421.54 0.472656L1343.46 0.472656C1338.1 0.472656 1333.55 4.39922 1332.76 9.70056L1320.74 91.038C1318.92 103.342 1301.17 103.342 1299.35 91.038L1287.32 9.70055C1286.54 4.39922 1281.99 0.472656 1276.63 0.472656L1198.54 0.472656C1193.18 0.472656 1188.63 4.39922 1187.85 9.70056L1175.81 91.068C1174 103.372 1156.25 103.372 1154.43 91.068L1142.4 9.70055C1141.61 4.39921 1137.06 0.472656 1131.7 0.472656L1053.62 0.472656C1048.26 0.472656 1043.71 4.39922 1042.93 9.70056L1030.9 91.038C1029.08 103.342 1011.34 103.342 1009.52 91.038L997.489 9.70055C996.705 4.39922 992.155 0.472656 986.796 0.472656L908.705 0.472656Z" fill="#F63E06"/>
<path d="M1199.21 0.472656C1193.85 0.472656 1189.3 4.39921 1188.52 9.70055L1162.13 188.139C1161.16 194.667 1166.22 200.529 1172.82 200.529H1219.67C1225.03 200.529 1229.58 196.603 1230.36 191.301L1242.4 109.934C1244.22 97.63 1261.96 97.63 1263.78 109.934L1275.81 191.301C1276.6 196.603 1281.15 200.529 1286.51 200.529L1334.92 200.529C1340.28 200.529 1344.83 196.603 1345.61 191.301L1357.64 109.964C1359.46 97.6601 1377.2 97.6601 1379.02 109.964L1391.05 191.301C1391.83 196.603 1396.38 200.529 1401.74 200.529H1509.51C1514.87 200.529 1519.42 196.603 1520.2 191.301L1532.23 109.934C1534.05 97.63 1551.8 97.63 1553.62 109.934L1565.65 191.301C1566.43 196.603 1570.98 200.529 1576.34 200.529L1624.75 200.529C1630.11 200.529 1634.66 196.603 1635.44 191.301L1647.47 109.964C1649.29 97.6601 1667.04 97.6601 1668.86 109.964L1680.88 191.301C1681.67 196.603 1686.22 200.529 1691.58 200.529H1738.43C1745.03 200.529 1750.09 194.667 1749.12 188.139L1722.73 9.70055C1721.95 4.39921 1717.4 0.472656 1712.04 0.472656L1633.96 0.472656C1628.6 0.472656 1624.05 4.39922 1623.27 9.70056L1611.24 91.038C1609.42 103.342 1591.67 103.342 1589.85 91.038L1577.83 9.70055C1577.04 4.39922 1572.49 0.472656 1567.13 0.472656L1489.04 0.472656C1483.68 0.472656 1479.13 4.39922 1478.35 9.70056L1466.32 91.068C1464.5 103.372 1446.75 103.372 1444.93 91.068L1432.9 9.70055C1432.12 4.39921 1427.57 0.472656 1422.21 0.472656L1344.13 0.472656C1338.77 0.472656 1334.22 4.39922 1333.43 9.70056L1321.4 91.038C1319.59 103.342 1301.84 103.342 1300.02 91.038L1287.99 9.70055C1287.21 4.39922 1282.66 0.472656 1277.3 0.472656L1199.21 0.472656Z" fill="#F63E06"/>
<path d="M1489.71 0.472656C1484.35 0.472656 1479.8 4.39921 1479.02 9.70055L1452.63 188.139C1451.67 194.667 1456.73 200.529 1463.32 200.529H1510.17C1515.53 200.529 1520.08 196.603 1520.87 191.301L1532.9 109.934C1534.72 97.63 1552.47 97.63 1554.29 109.934L1566.32 191.301C1567.1 196.603 1571.65 200.529 1577.01 200.529L1625.42 200.529C1630.78 200.529 1635.33 196.603 1636.11 191.301L1648.14 109.964C1649.96 97.6601 1667.71 97.6601 1669.53 109.964L1681.55 191.301C1682.34 196.603 1686.89 200.529 1692.25 200.529H1800.01C1805.37 200.529 1809.92 196.603 1810.7 191.301L1822.73 109.934C1824.55 97.63 1842.3 97.63 1844.12 109.934L1856.15 191.301C1856.94 196.603 1861.48 200.529 1866.84 200.529L1915.25 200.529C1920.61 200.529 1925.16 196.603 1925.95 191.301L1937.97 109.964C1939.79 97.6601 1957.54 97.6601 1959.36 109.964L1971.39 191.301C1972.17 196.603 1976.72 200.529 1982.08 200.529H2028.93C2035.53 200.529 2040.59 194.667 2039.62 188.139L2013.24 9.70055C2012.45 4.39921 2007.9 0.472656 2002.54 0.472656L1924.46 0.472656C1919.1 0.472656 1914.55 4.39922 1913.77 9.70056L1901.74 91.038C1899.92 103.342 1882.18 103.342 1880.36 91.038L1868.33 9.70055C1867.54 4.39922 1862.99 0.472656 1857.64 0.472656L1779.54 0.472656C1774.19 0.472656 1769.64 4.39922 1768.85 9.70056L1756.82 91.068C1755 103.372 1737.25 103.372 1735.43 91.068L1723.4 9.70055C1722.62 4.39921 1718.07 0.472656 1712.71 0.472656L1634.63 0.472656C1629.27 0.472656 1624.72 4.39922 1623.93 9.70056L1611.91 91.038C1610.09 103.342 1592.34 103.342 1590.52 91.038L1578.49 9.70055C1577.71 4.39922 1573.16 0.472656 1567.8 0.472656L1489.71 0.472656Z" fill="#F63E06"/>
<path d="M1780.21 0.472656C1774.85 0.472656 1770.3 4.39921 1769.52 9.70055L1743.13 188.139C1742.17 194.667 1747.23 200.529 1753.83 200.529H1800.68C1806.04 200.529 1810.59 196.603 1811.37 191.301L1823.4 109.934C1825.22 97.63 1842.97 97.63 1844.79 109.934L1856.82 191.301C1857.6 196.603 1862.15 200.529 1867.51 200.529L1915.92 200.529C1921.28 200.529 1925.83 196.603 1926.61 191.301L1938.64 109.964C1940.46 97.6601 1958.21 97.6601 1960.03 109.964L1972.06 191.301C1972.84 196.603 1977.39 200.529 1982.75 200.529H2090.51C2095.87 200.529 2100.42 196.603 2101.2 191.301L2113.24 109.934C2115.06 97.63 2132.8 97.63 2134.62 109.934L2146.65 191.301C2147.44 196.603 2151.99 200.529 2157.35 200.529L2205.76 200.529C2211.12 200.529 2215.67 196.603 2216.45 191.301L2228.48 109.964C2230.3 97.6601 2248.04 97.6601 2249.86 109.964L2261.89 191.301C2262.67 196.603 2267.22 200.529 2272.58 200.529H2319.43C2326.03 200.529 2331.09 194.667 2330.13 188.139L2303.74 9.70055C2302.96 4.39921 2298.41 0.472656 2293.05 0.472656L2214.96 0.472656C2209.61 0.472656 2205.06 4.39922 2204.27 9.70056L2192.24 91.038C2190.42 103.342 2172.68 103.342 2170.86 91.038L2158.83 9.70055C2158.05 4.39922 2153.5 0.472656 2148.14 0.472656L2070.05 0.472656C2064.69 0.472656 2060.14 4.39922 2059.35 9.70056L2047.32 91.068C2045.5 103.372 2027.76 103.372 2025.94 91.068L2013.91 9.70055C2013.12 4.39921 2008.57 0.472656 2003.21 0.472656L1925.13 0.472656C1919.77 0.472656 1915.22 4.39922 1914.44 9.70056L1902.41 91.038C1900.59 103.342 1882.84 103.342 1881.02 91.038L1869 9.70055C1868.21 4.39922 1863.66 0.472656 1858.3 0.472656L1780.21 0.472656Z" fill="#F63E06"/>
<path d="M2070.72 0.472656C2065.36 0.472656 2060.81 4.39921 2060.02 9.70055L2033.64 188.139C2032.67 194.667 2037.73 200.529 2044.33 200.529H2091.18C2096.54 200.529 2101.09 196.603 2101.87 191.301L2113.9 109.934C2115.72 97.63 2133.47 97.63 2135.29 109.934L2147.32 191.301C2148.11 196.603 2152.66 200.529 2158.02 200.529L2206.42 200.529C2211.78 200.529 2216.33 196.603 2217.12 191.301L2229.14 109.964C2230.96 97.6601 2248.71 97.6601 2250.53 109.964L2262.56 191.301C2263.34 196.603 2267.89 200.529 2273.25 200.529H2381.01C2386.37 200.529 2390.92 196.603 2391.71 191.301L2403.74 109.934C2405.56 97.63 2423.3 97.63 2425.12 109.934L2437.16 191.301C2437.94 196.603 2442.49 200.529 2447.85 200.529L2496.26 200.529C2501.62 200.529 2506.17 196.603 2506.95 191.301L2518.98 109.964C2520.8 97.6601 2538.55 97.6601 2540.36 109.964L2552.39 191.301C2553.18 196.603 2557.73 200.529 2563.08 200.529H2609.93C2616.53 200.529 2621.59 194.667 2620.63 188.139L2594.24 9.70055C2593.46 4.39921 2588.91 0.472656 2583.55 0.472656L2505.47 0.472656C2500.11 0.472656 2495.56 4.39922 2494.77 9.70056L2482.75 91.038C2480.93 103.342 2463.18 103.342 2461.36 91.038L2449.33 9.70055C2448.55 4.39922 2444 0.472656 2438.64 0.472656L2360.55 0.472656C2355.19 0.472656 2350.64 4.39922 2349.86 9.70056L2337.83 91.068C2336.01 103.372 2318.26 103.372 2316.44 91.068L2304.41 9.70055C2303.62 4.39921 2299.07 0.472656 2293.71 0.472656L2215.63 0.472656C2210.27 0.472656 2205.72 4.39922 2204.94 9.70056L2192.91 91.038C2191.09 103.342 2173.35 103.342 2171.53 91.038L2159.5 9.70055C2158.72 4.39922 2154.17 0.472656 2148.81 0.472656L2070.72 0.472656Z" fill="#F63E06"/>
<path d="M2361.22 0.472656C2355.86 0.472656 2351.31 4.39921 2350.53 9.70055L2324.14 188.139C2323.17 194.667 2328.23 200.529 2334.83 200.529H2381.68C2387.04 200.529 2391.59 196.603 2392.38 191.301L2404.41 109.934C2406.23 97.63 2423.97 97.63 2425.79 109.934L2437.83 191.301C2438.61 196.603 2443.16 200.529 2448.52 200.529L2496.93 200.529C2502.29 200.529 2506.84 196.603 2507.62 191.301L2519.65 109.964C2521.47 97.6601 2539.21 97.6601 2541.03 109.964L2553.06 191.301C2553.84 196.603 2558.39 200.529 2563.75 200.529H2671.52C2676.88 200.529 2681.43 196.603 2682.21 191.301L2694.24 109.934C2696.06 97.63 2713.81 97.63 2715.63 109.934L2727.66 191.301C2728.44 196.603 2732.99 200.529 2738.35 200.529L2786.76 200.529C2792.12 200.529 2796.67 196.603 2797.45 191.301L2809.48 109.964C2811.3 97.6601 2829.05 97.6601 2830.87 109.964L2842.89 191.301C2843.68 196.603 2848.23 200.529 2853.59 200.529H2900.44C2907.04 200.529 2912.1 194.667 2911.13 188.139L2884.74 9.70055C2883.96 4.39921 2879.41 0.472656 2874.05 0.472656L2795.97 0.472656C2790.61 0.472656 2786.06 4.39922 2785.28 9.70056L2773.25 91.038C2771.43 103.342 2753.68 103.342 2751.86 91.038L2739.84 9.70055C2739.05 4.39922 2734.5 0.472656 2729.14 0.472656L2651.05 0.472656C2645.69 0.472656 2641.14 4.39922 2640.36 9.70056L2628.33 91.068C2626.51 103.372 2608.76 103.372 2606.94 91.068L2594.91 9.70055C2594.13 4.39921 2589.58 0.472656 2584.22 0.472656L2506.14 0.472656C2500.78 0.472656 2496.23 4.39922 2495.44 9.70056L2483.42 91.038C2481.6 103.342 2463.85 103.342 2462.03 91.038L2450 9.70055C2449.22 4.39922 2444.67 0.472656 2439.31 0.472656L2361.22 0.472656Z" fill="#F63E06"/>
<path d="M2651.72 0.472656C2646.36 0.472656 2641.81 4.39921 2641.03 9.70055L2614.64 188.139C2613.68 194.667 2618.74 200.529 2625.34 200.529H2672.19C2677.54 200.529 2682.09 196.603 2682.88 191.301L2694.91 109.934C2696.73 97.63 2714.48 97.63 2716.3 109.934L2728.33 191.301C2729.11 196.603 2733.66 200.529 2739.02 200.529L2787.43 200.529C2792.79 200.529 2797.34 196.603 2798.12 191.301L2810.15 109.964C2811.97 97.6601 2829.72 97.6601 2831.54 109.964L2843.56 191.301C2844.35 196.603 2848.9 200.529 2854.26 200.529H2962.02C2967.38 200.529 2971.93 196.603 2972.71 191.301L2984.74 109.934C2986.56 97.63 3004.31 97.63 3006.13 109.934L3018.16 191.301C3018.95 196.603 3023.5 200.529 3028.85 200.529L3077.26 200.529C3082.62 200.529 3087.17 196.603 3087.96 191.301L3099.98 109.964C3101.8 97.6601 3119.55 97.6601 3121.37 109.964L3133.4 191.301C3134.18 196.603 3138.73 200.529 3144.09 200.529H3190.94C3197.54 200.529 3202.6 194.667 3201.63 188.139L3175.25 9.70055C3174.46 4.39921 3169.91 0.472656 3164.55 0.472656L3086.47 0.472656C3081.11 0.472656 3076.56 4.39922 3075.78 9.70056L3063.75 91.038C3061.93 103.342 3044.19 103.342 3042.37 91.038L3030.34 9.70055C3029.55 4.39922 3025.01 0.472656 3019.65 0.472656L2941.56 0.472656C2936.2 0.472656 2931.65 4.39922 2930.86 9.70056L2918.83 91.068C2917.01 103.372 2899.26 103.372 2897.44 91.068L2885.41 9.70055C2884.63 4.39921 2880.08 0.472656 2874.72 0.472656L2796.64 0.472656C2791.28 0.472656 2786.73 4.39922 2785.95 9.70056L2773.92 91.038C2772.1 103.342 2754.35 103.342 2752.53 91.038L2740.5 9.70055C2739.72 4.39922 2735.17 0.472656 2729.81 0.472656L2651.72 0.472656Z" fill="#F63E06"/>
<path d="M2942.22 0.472656C2936.87 0.472656 2932.32 4.39921 2931.53 9.70055L2905.15 188.139C2904.18 194.667 2909.24 200.529 2915.84 200.529H2962.69C2968.05 200.529 2972.6 196.603 2973.38 191.301L2985.41 109.934C2987.23 97.63 3004.98 97.63 3006.8 109.934L3018.83 191.301C3019.61 196.603 3024.16 200.529 3029.52 200.529L3077.93 200.529C3083.29 200.529 3087.84 196.603 3088.63 191.301L3100.65 109.964C3102.47 97.6601 3120.22 97.6601 3122.04 109.964L3134.07 191.301C3134.85 196.603 3139.4 200.529 3144.76 200.529H3252.52C3257.88 200.529 3262.43 196.603 3263.22 191.301L3275.25 109.934C3277.07 97.63 3294.81 97.63 3296.63 109.934L3308.66 191.301C3309.45 196.603 3314 200.529 3319.36 200.529L3367.77 200.529C3373.13 200.529 3377.68 196.603 3378.46 191.301L3390.49 109.964C3392.31 97.6601 3410.05 97.6601 3411.87 109.964L3423.9 191.301C3424.68 196.603 3429.23 200.529 3434.59 200.529H3481.44C3488.04 200.529 3493.1 194.667 3492.14 188.139L3465.75 9.70055C3464.97 4.39921 3460.42 0.472656 3455.06 0.472656L3376.98 0.472656C3371.62 0.472656 3367.07 4.39922 3366.28 9.70056L3354.25 91.038C3352.44 103.342 3334.69 103.342 3332.87 91.038L3320.84 9.70055C3320.06 4.39922 3315.51 0.472656 3310.15 0.472656L3232.06 0.472656C3226.7 0.472656 3222.15 4.39922 3221.37 9.70056L3209.33 91.068C3207.51 103.372 3189.77 103.372 3187.95 91.068L3175.92 9.70055C3175.13 4.39921 3170.58 0.472656 3165.22 0.472656L3087.14 0.472656C3081.78 0.472656 3077.23 4.39922 3076.45 9.70056L3064.42 91.038C3062.6 103.342 3044.85 103.342 3043.04 91.038L3031.01 9.70055C3030.22 4.39922 3025.67 0.472656 3020.31 0.472656L2942.22 0.472656Z" fill="#F63E06"/>
<path d="M3232.73 0.472656C3227.37 0.472656 3222.82 4.39921 3222.03 9.70055L3195.65 188.139C3194.68 194.667 3199.74 200.529 3206.34 200.529H3253.19C3258.55 200.529 3263.1 196.603 3263.88 191.301L3275.92 109.934C3277.73 97.63 3295.48 97.63 3297.3 109.934L3309.33 191.301C3310.12 196.603 3314.67 200.529 3320.03 200.529L3368.44 200.529C3373.79 200.529 3378.34 196.603 3379.13 191.301L3391.16 109.964C3392.97 97.6601 3410.72 97.6601 3412.54 109.964L3424.57 191.301C3425.35 196.603 3429.9 200.529 3435.26 200.529H3543.02C3548.38 200.529 3552.93 196.603 3553.72 191.301L3565.75 109.934C3567.57 97.63 3585.32 97.63 3587.14 109.934L3599.17 191.301C3599.95 196.603 3604.5 200.529 3609.86 200.529L3658.27 200.529C3663.63 200.529 3668.18 196.603 3668.96 191.301L3680.99 109.964C3682.81 97.6601 3700.56 97.6601 3702.38 109.964L3714.4 191.301C3715.19 196.603 3719.74 200.529 3725.1 200.529H3771.95C3778.54 200.529 3783.6 194.667 3782.64 188.139L3756.25 9.70055C3755.47 4.39921 3750.92 0.472656 3745.56 0.472656L3667.48 0.472656C3662.12 0.472656 3657.57 4.39922 3656.78 9.70056L3644.76 91.038C3642.94 103.342 3625.19 103.342 3623.37 91.038L3611.34 9.70055C3610.56 4.39922 3606.01 0.472656 3600.65 0.472656L3522.56 0.472656C3517.2 0.472656 3512.65 4.39922 3511.87 9.70056L3499.84 91.068C3498.02 103.372 3480.27 103.372 3478.45 91.068L3466.42 9.70055C3465.63 4.39921 3461.08 0.472656 3455.73 0.472656L3377.64 0.472656C3372.28 0.472656 3367.73 4.39922 3366.95 9.70056L3354.92 91.038C3353.1 103.342 3335.36 103.342 3333.54 91.038L3321.51 9.70055C3320.73 4.39922 3316.18 0.472656 3310.82 0.472656L3232.73 0.472656Z" fill="#F63E06"/>
<path d="M3523.23 0.472656C3517.87 0.472656 3513.32 4.39921 3512.54 9.70055L3486.15 188.139C3485.19 194.667 3490.24 200.529 3496.84 200.529H3543.69C3549.05 200.529 3553.6 196.603 3554.39 191.301L3566.42 109.934C3568.24 97.63 3585.98 97.63 3587.8 109.934L3599.84 191.301C3600.62 196.603 3605.17 200.529 3610.53 200.529L3658.94 200.529C3664.3 200.529 3668.85 196.603 3669.63 191.301L3681.66 109.964C3683.48 97.6601 3701.22 97.6601 3703.04 109.964L3715.07 191.301C3715.86 196.603 3720.41 200.529 3725.76 200.529H3833.53C3838.89 200.529 3843.44 196.603 3844.22 191.301L3856.25 109.934C3858.07 97.63 3875.82 97.63 3877.64 109.934L3889.67 191.301C3890.45 196.603 3895 200.529 3900.36 200.529L3948.77 200.529C3954.13 200.529 3958.68 196.603 3959.47 191.301L3971.49 109.964C3973.31 97.6601 3991.06 97.6601 3992.88 109.964L4004.91 191.301C4005.69 196.603 4010.24 200.529 4015.6 200.529H4062.45C4069.05 200.529 4074.11 194.667 4073.14 188.139L4046.76 9.70055C4045.97 4.39921 4041.42 0.472656 4036.06 0.472656L3957.98 0.472656C3952.62 0.472656 3948.07 4.39922 3947.29 9.70056L3935.26 91.038C3933.44 103.342 3915.69 103.342 3913.87 91.038L3901.85 9.70055C3901.06 4.39922 3896.51 0.472656 3891.15 0.472656L3813.06 0.472656C3807.7 0.472656 3803.15 4.39922 3802.37 9.70056L3790.34 91.068C3788.52 103.372 3770.77 103.372 3768.95 91.068L3756.92 9.70055C3756.14 4.39921 3751.59 0.472656 3746.23 0.472656L3668.15 0.472656C3662.79 0.472656 3658.24 4.39922 3657.45 9.70056L3645.43 91.038C3643.61 103.342 3625.86 103.342 3624.04 91.038L3612.01 9.70055C3611.23 4.39922 3606.68 0.472656 3601.32 0.472656L3523.23 0.472656Z" fill="#F63E06"/>
<path d="M3813.73 0.472656C3808.37 0.472656 3803.82 4.39921 3803.04 9.70055L3776.65 188.139C3775.69 194.667 3780.75 200.529 3787.35 200.529H3834.2C3839.56 200.529 3844.1 196.603 3844.89 191.301L3856.92 109.934C3858.74 97.63 3876.49 97.63 3878.31 109.934L3890.34 191.301C3891.12 196.603 3895.67 200.529 3901.03 200.529L3949.44 200.529C3954.8 200.529 3959.35 196.603 3960.13 191.301L3972.16 109.964C3973.98 97.6601 3991.73 97.6601 3993.55 109.964L4005.57 191.301C4006.36 196.603 4010.91 200.529 4016.27 200.529H4124.03C4129.39 200.529 4133.94 196.603 4134.72 191.301L4146.75 109.934C4148.57 97.63 4166.32 97.63 4168.14 109.934L4180.17 191.301C4180.96 196.603 4185.51 200.529 4190.87 200.529L4239.27 200.529C4244.63 200.529 4249.18 196.603 4249.97 191.301L4261.99 109.964C4263.81 97.6601 4281.56 97.6601 4283.38 109.964L4295.41 191.301C4296.19 196.603 4300.74 200.529 4306.1 200.529H4352.95C4359.55 200.529 4364.61 194.667 4363.64 188.139L4337.26 9.70055C4336.47 4.39921 4331.92 0.472656 4326.56 0.472656L4248.48 0.472656C4243.12 0.472656 4238.57 4.39922 4237.79 9.70056L4225.76 91.038C4223.94 103.342 4206.2 103.342 4204.38 91.038L4192.35 9.70055C4191.57 4.39922 4187.02 0.472656 4181.66 0.472656L4103.57 0.472656C4098.21 0.472656 4093.66 4.39922 4092.87 9.70056L4080.84 91.068C4079.02 103.372 4061.28 103.372 4059.46 91.068L4047.42 9.70055C4046.64 4.39921 4042.09 0.472656 4036.73 0.472656L3958.65 0.472656C3953.29 0.472656 3948.74 4.39922 3947.96 9.70056L3935.93 91.038C3934.11 103.342 3916.36 103.342 3914.54 91.038L3902.52 9.70055C3901.73 4.39922 3897.18 0.472656 3891.82 0.472656L3813.73 0.472656Z" fill="#F63E06"/>
<path d="M4104.23 0.472656C4098.88 0.472656 4094.33 4.39921 4093.54 9.70055L4067.16 188.139C4066.19 194.667 4071.25 200.529 4077.85 200.529H4124.7C4130.06 200.529 4134.61 196.603 4135.39 191.301L4147.42 109.934C4149.24 97.63 4166.99 97.63 4168.81 109.934L4180.84 191.301C4181.63 196.603 4186.18 200.529 4191.53 200.529L4239.94 200.529C4245.3 200.529 4249.85 196.603 4250.64 191.301L4262.66 109.964C4264.48 97.6601 4282.23 97.6601 4284.05 109.964L4296.08 191.301C4296.86 196.603 4301.41 200.529 4306.77 200.529H4414.53C4419.89 200.529 4424.44 196.603 4425.23 191.301L4437.26 109.934C4439.08 97.63 4456.82 97.63 4458.64 109.934L4470.68 191.301C4471.46 196.603 4476.01 200.529 4481.37 200.529L4529.78 200.529C4535.14 200.529 4539.69 196.603 4540.47 191.301L4552.5 109.964C4554.32 97.6601 4572.06 97.6601 4573.88 109.964L4585.91 191.301C4586.69 196.603 4591.24 200.529 4596.6 200.529H4643.45C4650.05 200.529 4655.11 194.667 4654.15 188.139L4627.76 9.70055C4626.98 4.39921 4622.43 0.472656 4617.07 0.472656L4538.99 0.472656C4533.63 0.472656 4529.08 4.39922 4528.29 9.70056L4516.27 91.038C4514.45 103.342 4496.7 103.342 4494.88 91.038L4482.85 9.70055C4482.07 4.39922 4477.52 0.472656 4472.16 0.472656L4394.07 0.472656C4388.71 0.472656 4384.16 4.39922 4383.38 9.70056L4371.34 91.068C4369.52 103.372 4351.78 103.372 4349.96 91.068L4337.93 9.70055C4337.14 4.39921 4332.59 0.472656 4327.23 0.472656L4249.15 0.472656C4243.79 0.472656 4239.24 4.39922 4238.46 9.70056L4226.43 91.038C4224.61 103.342 4206.87 103.342 4205.05 91.038L4193.02 9.70055C4192.23 4.39922 4187.68 0.472656 4182.33 0.472656L4104.23 0.472656Z" fill="#F63E06"/>
</g>
<defs>
<clipPath id="clip0_114_252">
<rect width="4654.27" height="200" fill="white" transform="translate(0 0.500977)"/>
</clipPath>
</defs>
</svg>
