<svg viewBox="0 0 1200 630" xmlns="http://www.w3.org/2000/svg">
<rect width="1200" height="630" fill="#F0F0EC"/>
<rect x="0" y="0" width="1200" height="14" fill="#FF3D02"/>
<circle cx="200" cy="150" r="34" fill="#000000" fill-opacity="0.12"/><circle cx="320" cy="150" r="34" fill="#000000" fill-opacity="0.12"/><circle cx="440" cy="150" r="34" fill="#000000" fill-opacity="0.12"/><circle cx="560" cy="150" r="34" fill="#000000" fill-opacity="0.12"/><circle cx="680" cy="150" r="34" fill="#000000" fill-opacity="0.12"/><circle cx="800" cy="150" r="34" fill="#000000" fill-opacity="0.12"/><circle cx="200" cy="280" r="34" fill="#000000" fill-opacity="0.12"/><circle cx="320" cy="280" r="34" fill="#000000" fill-opacity="0.12"/><circle cx="560" cy="280" r="34" fill="#000000" fill-opacity="0.12"/><circle cx="680" cy="280" r="34" fill="#000000" fill-opacity="0.12"/><circle cx="800" cy="280" r="34" fill="#000000" fill-opacity="0.12"/><circle cx="200" cy="410" r="34" fill="#000000" fill-opacity="0.12"/><circle cx="320" cy="410" r="34" fill="#000000" fill-opacity="0.12"/><circle cx="440" cy="410" r="34" fill="#000000" fill-opacity="0.12"/><circle cx="680" cy="410" r="34" fill="#000000" fill-opacity="0.12"/><circle cx="800" cy="410" r="34" fill="#000000" fill-opacity="0.12"/>
<circle cx="440" cy="280" r="60" fill="#FF3D02"/>
<circle cx="440" cy="280" r="60" fill="none" stroke="#000000" stroke-width="3" stroke-dasharray="6 8"/>
<circle cx="560" cy="410" r="60" fill="#F0AA00"/>
<text x="40" y="590" font-family="'TT Commons Condensed','Helvetica Neue',Arial,sans-serif" font-size="12" letter-spacing="2" fill="#000000" fill-opacity="0.5">MECHANICMARKETING.CO</text>
</svg>